<svg width="15px" height="15px" viewBox="0 0 15 15" version="1.1" xmlns="http://www.w3.org/2000/svg" xmlns:xlink="http://www.w3.org/1999/xlink">
    <!-- Generator: Sketch 44.1 (41455) - http://www.bohemiancoding.com/sketch -->
    <desc>Created with Sketch.</desc>
    <defs></defs>
    <g id="Style-Guide" stroke="none" stroke-width="1" fill="none" fill-rule="evenodd">
        <g id="TD-Style-Guide-Large" transform="translate(-641.000000, -6481.000000)" stroke="#343F53" fill="#343F53">
            <g id="Callout" transform="translate(149.000000, 6371.200000)">
                <g id="Callout-Component" transform="translate(0.000000, 61.000000)">
                    <path d="M505.881355,51.0091318 C506.118782,50.7717051 506.118782,50.4154968 505.881355,50.17807 C505.643928,49.9406433 505.28772,49.9406433 505.050293,50.17807 L499.529712,55.6986507 L494.009132,50.17807 C493.771705,49.9406433 493.415497,49.9406433 493.17807,50.17807 C492.940643,50.4154968 492.940643,50.7717051 493.17807,51.0091318 L498.698582,56.5297125 L493.17807,62.0502249 C492.940643,62.2876516 492.940643,62.6438599 493.17807,62.8812866 C493.296783,63 493.53421,63 493.652923,63 C493.771637,63 494.009064,63 494.009064,62.8812866 L499.529644,57.360706 L505.050225,62.8812866 C505.168938,63 505.406365,63 505.525078,63 C505.643792,63 505.881218,63 505.881218,62.8812866 C506.118645,62.6438599 506.118645,62.2876516 505.881218,62.0502249 L500.360774,56.5297125 L505.881355,51.0091318 Z" id="Close"></path>
                </g>
            </g>
        </g>
    </g>
</svg>