<svg width="24px" height="24px" viewBox="0 0 24 24" version="1.1" xmlns="http://www.w3.org/2000/svg" xmlns:xlink="http://www.w3.org/1999/xlink">
    <!-- Generator: Sketch 43.2 (39069) - http://www.bohemiancoding.com/sketch -->
    <desc>Created with Sketch.</desc>
    <defs></defs>
    <g id="Symbols" stroke="none" stroke-width="1" fill="none" fill-rule="evenodd">
        <g id="Modal-Component" transform="translate(-863.000000, -89.000000)" fill="#FFFFFF">
            <g id="close">
                <g transform="translate(863.000000, 89.000000)">
                    <path d="M13.486,12.01775 L23.6005,1.90325 C24.0355,1.46825 24.0355,0.815625 23.6005,0.380625 C23.1655,-0.054375 22.512875,-0.054375 22.077875,0.380625 L11.963375,10.495125 L1.848875,0.380625 C1.413875,-0.054375 0.76125,-0.054375 0.32625,0.380625 C-0.10875,0.815625 -0.10875,1.46825 0.32625,1.90325 L10.440625,12.01775 L0.32625,22.132125 C-0.10875,22.567125 -0.10875,23.21975 0.32625,23.65475 C0.54375,23.87225 0.97875,23.87225 1.19625,23.87225 C1.41375,23.87225 1.84875,23.87225 1.84875,23.65475 L11.96325,13.54025 L22.07775,23.65475 C22.29525,23.87225 22.73025,23.87225 22.94775,23.87225 C23.16525,23.87225 23.60025,23.87225 23.60025,23.65475 C24.03525,23.21975 24.03525,22.567125 23.60025,22.132125 L13.486,12.01775 L13.486,12.01775 Z" id="Shape"></path>
                </g>
            </g>
        </g>
    </g>
</svg>