<?xml version="1.0" encoding="UTF-8"?>
<svg width="26px" height="19px" viewBox="0 0 26 19" version="1.1" xmlns="http://www.w3.org/2000/svg" xmlns:xlink="http://www.w3.org/1999/xlink">
    <!-- Generator: Sketch 52.2 (67145) - http://www.bohemiancoding.com/sketch -->
    <title>flag-sg</title>
    <desc>Created with Sketch.</desc>
    <defs>
        <linearGradient x1="50%" y1="0%" x2="50%" y2="100%" id="linearGradient-1">
            <stop stop-color="#FFFFFF" offset="0%"></stop>
            <stop stop-color="#F0F0F0" offset="100%"></stop>
        </linearGradient>
        <rect id="path-2" x="0" y="0" width="23.8" height="17" rx="2"></rect>
    </defs>
    <g id="Page-1" stroke="none" stroke-width="1" fill="none" fill-rule="evenodd">
        <g id="SD-3141---Reference" transform="translate(-484.000000, -192.000000)">
            <g id="Group-15" transform="translate(480.000000, 144.000000)">
                <g id="Group-3" transform="translate(4.000000, 22.000000)">
                    <g id="flag-sg" transform="translate(1.000000, 27.000000)">
                        <mask id="mask-3" fill="white">
                            <use xlink:href="#path-2"></use>
                        </mask>
                        <use id="Mask" stroke="#FFFFFF" stroke-width="0.5" fill="#FFFFFF" xlink:href="#path-2"></use>
                        <rect id="Rectangle-2" fill="#E12237" mask="url(#mask-3)" x="0" y="0" width="23.8" height="9.06666667"></rect>
                        <path d="M7.79011964,1.87781127 C7.48190488,1.76284398 7.14829144,1.7 6.8,1.7 C5.23519321,1.7 3.96666667,2.96852654 3.96666667,4.53333333 C3.96666667,6.09814012 5.23519321,7.36666667 6.8,7.36666667 C7.14829144,7.36666667 7.48190488,7.30382268 7.79011964,7.1888554 C7.20827865,7.65472224 6.47000921,7.93333333 5.66666667,7.93333333 C3.78889852,7.93333333 2.26666667,6.41110148 2.26666667,4.53333333 C2.26666667,2.65556518 3.78889852,1.13333333 5.66666667,1.13333333 C6.47000921,1.13333333 7.20827865,1.41194443 7.79011964,1.87781127 Z M6.23333333,4.53333333 C5.92037198,4.53333333 5.66666667,4.27962802 5.66666667,3.96666667 C5.66666667,3.65370531 5.92037198,3.4 6.23333333,3.4 C6.54629469,3.4 6.8,3.65370531 6.8,3.96666667 C6.8,4.27962802 6.54629469,4.53333333 6.23333333,4.53333333 Z M7.36666667,6.8 C7.05370531,6.8 6.8,6.54629469 6.8,6.23333333 C6.8,5.92037198 7.05370531,5.66666667 7.36666667,5.66666667 C7.67962802,5.66666667 7.93333333,5.92037198 7.93333333,6.23333333 C7.93333333,6.54629469 7.67962802,6.8 7.36666667,6.8 Z M9.63333333,6.8 C9.32037198,6.8 9.06666667,6.54629469 9.06666667,6.23333333 C9.06666667,5.92037198 9.32037198,5.66666667 9.63333333,5.66666667 C9.94629469,5.66666667 10.2,5.92037198 10.2,6.23333333 C10.2,6.54629469 9.94629469,6.8 9.63333333,6.8 Z M10.7666667,4.53333333 C10.4537053,4.53333333 10.2,4.27962802 10.2,3.96666667 C10.2,3.65370531 10.4537053,3.4 10.7666667,3.4 C11.079628,3.4 11.3333333,3.65370531 11.3333333,3.96666667 C11.3333333,4.27962802 11.079628,4.53333333 10.7666667,4.53333333 Z M8.5,2.83333333 C8.18703864,2.83333333 7.93333333,2.57962802 7.93333333,2.26666667 C7.93333333,1.95370531 8.18703864,1.7 8.5,1.7 C8.81296136,1.7 9.06666667,1.95370531 9.06666667,2.26666667 C9.06666667,2.57962802 8.81296136,2.83333333 8.5,2.83333333 Z" id="Oval-12" fill="#FFFFFF" mask="url(#mask-3)"></path>
                    </g>
                </g>
            </g>
        </g>
    </g>
</svg>