<?xml version="1.0" encoding="UTF-8"?>
<svg width="29px" height="20px" viewBox="0 0 29 20" version="1.1" xmlns="http://www.w3.org/2000/svg" xmlns:xlink="http://www.w3.org/1999/xlink">
    <!-- Generator: Sketch 49.3 (51167) - http://www.bohemiancoding.com/sketch -->
    <title>flag - AU</title>
    <desc>Created with Sketch.</desc>
    <defs>
        <rect id="path-1" x="0" y="0" width="28" height="20" rx="2"></rect>
        <path d="M4.66666667,4 L0,0 L0.666666667,0 L5.33333333,3.33333333 L6.66666667,3.33333333 L12,0 L12,0.333333333 C12,0.51742825 11.8846436,0.749064128 11.7220542,0.865199407 L7.33333333,4 L7.33333333,5.33333333 L11.7490997,9.11827596 C11.8876681,9.23704887 11.8453776,9.33333333 11.6666667,9.33333333 L11.6666667,9.33333333 C11.4825718,9.33333333 11.2179769,9.25093587 11.0553875,9.13480059 L6.66666667,6 L5.33333333,6 L0,9.33333333 L0,8.66666667 L4.66666667,5.33333333 L4.66666667,4 Z" id="path-3"></path>
        <linearGradient x1="50%" y1="0%" x2="50%" y2="100%" id="linearGradient-4">
            <stop stop-color="#FFFFFF" offset="0%"></stop>
            <stop stop-color="#F0F0F0" offset="100%"></stop>
        </linearGradient>
        <linearGradient x1="50%" y1="0%" x2="50%" y2="100%" id="linearGradient-5">
            <stop stop-color="#FF2E3B" offset="0%"></stop>
            <stop stop-color="#FC0D1B" offset="100%"></stop>
        </linearGradient>
    </defs>
    <g id="Page-1" stroke="none" stroke-width="1" fill="none" fill-rule="evenodd">
        <g id="1.3---Icon-in-Header---Dirweb" transform="translate(-540.000000, -34.000000)">
            <g id="Country-Selector---floating" transform="translate(530.500000, 21.000000)">
                <g id="flag---AU" transform="translate(10.000000, 13.000000)">
                    <mask id="mask-2" fill="white">
                        <use xlink:href="#path-1"></use>
                    </mask>
                    <g id="Mask">
                        <use fill="#FFFFFF" fill-rule="evenodd" xlink:href="#path-1"></use>
                        <rect stroke="#979797" stroke-width="1.33333333" x="0.666666667" y="0.666666667" width="26.6666667" height="18.6666667" rx="2"></rect>
                    </g>
                    <rect id="Mask-Copy" fill="#0A17A7" mask="url(#mask-2)" x="0" y="0" width="28" height="20"></rect>
                    <g id="Rectangle-36" mask="url(#mask-2)">
                        <use fill="#FF2E3B" fill-rule="evenodd" xlink:href="#path-3"></use>
                        <path stroke="#FFFFFF" stroke-width="0.666666667" d="M4.33333333,4.15331164 L-0.901085803,-0.333333333 L0.666666667,-0.333333333 L0.860412731,-0.27124449 L5.44015502,3 L6.57106792,3 L12.3333333,-0.601415881 L12.3333333,0.333333333 C12.3333333,0.628978368 12.1628101,0.960008269 11.9158002,1.1364439 L7.66666667,4.1715393 L7.66666667,5.18002169 L11.9660302,8.86519043 C12.3427037,9.18805344 12.1509712,9.66666667 11.6666667,9.66666667 C11.4092185,9.66666667 11.0776031,9.56030345 10.8616414,9.40604508 L6.55984498,6.33333333 L5.42893208,6.33333333 L-0.333333333,9.93474921 L-0.333333333,8.49512737 L4.33333333,5.16179403 L4.33333333,4.15331164 Z"></path>
                    </g>
                    <path d="M0,3.33333333 L0,6 L4.66666667,6 L4.66666667,9.33948135 C4.66666667,9.70427573 4.97256724,10 5.33957926,10 L6.66042074,10 C7.0320601,10 7.33333333,9.69934988 7.33333333,9.33948135 L7.33333333,6 L11.9911963,6 C12.3642483,6 12.6666667,5.69409943 12.6666667,5.3270874 L12.6666667,4.00624593 C12.6666667,3.63460657 12.3646425,3.33333333 11.9911963,3.33333333 L7.33333333,3.33333333 L7.33333333,0 L4.66666667,0 L4.66666667,3.33333333 L0,3.33333333 Z" id="Rectangle-2" fill="url(#linearGradient-4)" mask="url(#mask-2)"></path>
                    <polygon id="Rectangle-36" fill="url(#linearGradient-5)" mask="url(#mask-2)" points="0 4 5.33333333 4 5.33333333 3.33333333 5.33333333 0 6.66666667 0 6.66666667 3.33333333 6.66666667 4 12 4 12 5.33333333 6.66666667 5.33333333 6.66666667 6 6.66666667 9.33333333 5.33333333 9.33333333 5.33333333 6 5.33333333 5.33333333 0 5.33333333"></polygon>
                    <polygon id="Star-2" fill="#FFFFFF" mask="url(#mask-2)" points="6 16.3333333 4.8244295 16.9513673 5.04894348 15.6423503 4.09788697 14.7152993 5.41221475 14.5243163 6 13.3333333 6.58778525 14.5243163 7.90211303 14.7152993 6.95105652 15.6423503 7.1755705 16.9513673"></polygon>
                    <polygon id="Star-2" fill="#FFFFFF" mask="url(#mask-2)" points="20 17.3333333 19.850714 17.9916163 19.8516527 17.3166186 19.5596279 17.9251778 19.7107442 17.2673126 19.2906239 17.7956323 19.5843401 17.1878877 19.057191 17.6094757 19.478779 17.0823265 18.8710344 17.3760428 19.3993541 16.9559225 18.7414889 17.1070387 19.3500481 16.815014 18.6750504 16.8159526 19.3333333 16.6666667 18.6750504 16.5173807 19.3500481 16.5183194 18.7414889 16.2262946 19.3993541 16.3774108 18.8710344 15.9572906 19.478779 16.2510068 19.057191 15.7238576 19.5843401 16.1454457 19.2906239 15.5377011 19.7107442 16.0660208 19.5596279 15.4081556 19.8516527 16.0167147 19.850714 15.3417171 20 16 20.149286 15.3417171 20.1483473 16.0167147 20.4403721 15.4081556 20.2892558 16.0660208 20.7093761 15.5377011 20.4156599 16.1454457 20.942809 15.7238576 20.521221 16.2510068 21.1289656 15.9572906 20.6006459 16.3774108 21.2585111 16.2262946 20.6499519 16.5183194 21.3249496 16.5173807 20.6666667 16.6666667 21.3249496 16.8159526 20.6499519 16.815014 21.2585111 17.1070387 20.6006459 16.9559225 21.1289656 17.3760428 20.521221 17.0823265 20.942809 17.6094757 20.4156599 17.1878877 20.7093761 17.7956323 20.2892558 17.2673126 20.4403721 17.9251778 20.1483473 17.3166186 20.149286 17.9916163"></polygon>
                    <polygon id="Star-2" fill="#FFFFFF" mask="url(#mask-2)" points="20 4.66666667 19.057191 4.94280904 19.3333333 4 19.057191 3.05719096 20 3.33333333 20.942809 3.05719096 20.6666667 4 20.942809 4.94280904"></polygon>
                    <polygon id="Star-2" fill="#FFFFFF" mask="url(#mask-2)" points="24 8.66666667 23.057191 8.94280904 23.3333333 8 23.057191 7.05719096 24 7.33333333 24.942809 7.05719096 24.6666667 8 24.942809 8.94280904"></polygon>
                    <polygon id="Star-2" fill="#FFFFFF" mask="url(#mask-2)" points="16 10 15.057191 10.2761424 15.3333333 9.33333333 15.057191 8.39052429 16 8.66666667 16.942809 8.39052429 16.6666667 9.33333333 16.942809 10.2761424"></polygon>
                    <polygon id="Star-2" fill="#FFFFFF" mask="url(#mask-2)" points="22 11.6666667 21.5285955 11.8047379 21.6666667 11.3333333 21.5285955 10.8619288 22 11 22.4714045 10.8619288 22.3333333 11.3333333 22.4714045 11.8047379"></polygon>
                </g>
            </g>
        </g>
    </g>
</svg>