<?xml version="1.0" encoding="UTF-8"?>
<svg width="26px" height="19px" viewBox="0 0 26 19" version="1.1" xmlns="http://www.w3.org/2000/svg" xmlns:xlink="http://www.w3.org/1999/xlink">
    <!-- Generator: Sketch 52.2 (67145) - http://www.bohemiancoding.com/sketch -->
    <title>flag-za</title>
    <desc>Created with Sketch.</desc>
    <defs>
        <linearGradient x1="50%" y1="0%" x2="50%" y2="100%" id="linearGradient-1">
            <stop stop-color="#FFFFFF" offset="0%"></stop>
            <stop stop-color="#F0F0F0" offset="100%"></stop>
        </linearGradient>
        <rect id="path-2" x="0" y="0" width="23.8" height="17" rx="2"></rect>
    </defs>
    <g id="Page-1" stroke="none" stroke-width="1" fill="none" fill-rule="evenodd">
        <g id="SD-3141---Reference" transform="translate(-604.000000, -193.000000)">
            <g id="Group-14" transform="translate(603.000000, 144.000000)">
                <g id="Group" transform="translate(1.000000, 23.000000)">
                    <g id="flag-za" transform="translate(1.000000, 27.000000)">
                        <mask id="mask-3" fill="white">
                            <use xlink:href="#path-2"></use>
                        </mask>
                        <use id="Mask" stroke-opacity="0.5" stroke="#FFFFFF" stroke-width="1.33333333" fill="#06A86E" xlink:href="#path-2"></use>
                        <polygon id="Rectangle-83" fill="#FFBF2E" mask="url(#mask-3)" points="0 2.26666667 7.93333333 8.5 0 14.7333333"></polygon>
                        <polygon id="Rectangle-83-Copy-5" fill="#262626" mask="url(#mask-3)" points="-1.13333333 2.55 6.51666667 8.5 -1.13333333 14.45"></polygon>
                        <polygon id="Rectangle-83-Copy" fill="#FFFFFF" mask="url(#mask-3)" points="10.2 6.8 2.26666667 0 23.8 0 23.8 6.8"></polygon>
                        <polygon id="Rectangle-83-Copy-3" fill="#F44E46" mask="url(#mask-3)" points="10.4833333 5.66666667 3.68333333 0 23.8 0 23.8 5.66666667"></polygon>
                        <polygon id="Rectangle-83-Copy-2" fill="#FFFFFF" mask="url(#mask-3)" points="2.26666667 17 23.8 17 23.8 10.2 10.2 10.2"></polygon>
                        <polygon id="Rectangle-83-Copy-4" fill="#072CB4" mask="url(#mask-3)" points="3.68333333 17 23.8 17 23.8 11.3333333 10.4833333 11.3333333"></polygon>
                    </g>
                </g>
            </g>
        </g>
    </g>
</svg>