<?xml version="1.0" encoding="UTF-8"?>
<svg width="21px" height="15px" viewBox="0 0 21 15" version="1.1" xmlns="http://www.w3.org/2000/svg" xmlns:xlink="http://www.w3.org/1999/xlink">
    <!-- Generator: Sketch 49.3 (51167) - http://www.bohemiancoding.com/sketch -->
    <title>icon-flag-au-sm</title>
    <desc>Created with Sketch.</desc>
    <defs>
        <rect id="path-1" x="0" y="0" width="21" height="15" rx="2"></rect>
        <rect id="path-3" x="0" y="0" width="21" height="15"></rect>
        <path d="M3.5,3 L0,0 L0.5,0 L4,2.5 L5,2.5 L9,0 L9,0.158203125 C9,0.346972327 8.88354874,0.583179474 8.72536087,0.696170807 L5.5,3 L5.5,4 L8.74828863,6.7842474 C8.88730498,6.90340427 8.84179688,7 8.65820312,7 L8.84179688,7 C8.65302767,7 8.38354874,6.91682053 8.22536087,6.80382919 L5,4.5 L4,4.5 L0,7 L0,6.5 L3.5,4 L3.5,3 Z" id="path-4"></path>
        <linearGradient x1="50%" y1="0%" x2="50%" y2="100%" id="linearGradient-5">
            <stop stop-color="#FFFFFF" offset="0%"></stop>
            <stop stop-color="#F0F0F0" offset="100%"></stop>
        </linearGradient>
        <linearGradient x1="50%" y1="0%" x2="50%" y2="100%" id="linearGradient-6">
            <stop stop-color="#FF2E3B" offset="0%"></stop>
            <stop stop-color="#FC0D1B" offset="100%"></stop>
        </linearGradient>
    </defs>
    <g id="Large" stroke="none" stroke-width="1" fill="none" fill-rule="evenodd">
        <g id="AU---Locale-Selector---Footer" transform="translate(-292.000000, -890.000000)">
            <g id="Group" transform="translate(292.000000, 888.000000)">
                <g id="icon-flag-au-sm" transform="translate(0.000000, 2.000000)">
                    <mask id="mask-2" fill="white">
                        <use xlink:href="#path-1"></use>
                    </mask>
                    <use id="Mask" fill="#FFFFFF" xlink:href="#path-1"></use>
                    <g id="Mask-Copy" mask="url(#mask-2)">
                        <use fill="#0A17A7" fill-rule="evenodd" xlink:href="#path-3"></use>
                        <rect stroke-opacity="0.5" stroke="#FFFFFF" stroke-width="1" x="0.5" y="0.5" width="20" height="14"></rect>
                    </g>
                    <g id="Rectangle-36" mask="url(#mask-2)">
                        <use fill="#FF2E3B" fill-rule="evenodd" xlink:href="#path-4"></use>
                        <path stroke="#FFFFFF" stroke-width="0.666666667" d="M3.16666667,3.15331164 L-0.901085803,-0.333333333 L0.5,-0.333333333 L0.693746065,-0.27124449 L4.10682168,2.16666667 L4.90440126,2.16666667 L9.33333333,-0.601415881 L9.33333333,0.158203125 C9.33333333,0.456550012 9.16341403,0.792910232 8.91910693,0.967415297 L5.83333333,3.1715393 L5.83333333,3.84668836 L8.96521909,6.53116186 C9.29463555,6.81351883 9.18713134,7.205011 8.84179688,7.30779773 L8.84179688,7.33333333 C8.80924998,7.33333333 8.77551475,7.33167664 8.74098092,7.32848071 C8.71440122,7.33167292 8.68678717,7.33333333 8.65820312,7.33333333 L8.65820312,7.31814016 C8.43712756,7.28365896 8.19702067,7.19322073 8.03161481,7.07507368 L4.89317832,4.83333333 L4.09559874,4.83333333 L-0.333333333,7.60141588 L-0.333333333,6.3284607 L3.16666667,3.8284607 L3.16666667,3.15331164 Z"></path>
                    </g>
                    <path d="M0,2.5 L0,4.5 L3.5,4.5 L3.5,6.83420277 C3.5,7.20191242 3.79510689,7.5 4.16597104,7.5 L4.83402896,7.5 C5.20183461,7.5 5.5,7.20138073 5.5,6.83420277 L5.5,4.5 L8.83948135,4.5 C9.20427573,4.5 9.5,4.20489311 9.5,3.83402896 L9.5,3.16597104 C9.5,2.79816539 9.19934988,2.5 8.83948135,2.5 L5.5,2.5 L5.5,0 L3.5,0 L3.5,2.5 L0,2.5 Z" id="Rectangle-2" fill="url(#linearGradient-5)" mask="url(#mask-2)"></path>
                    <polygon id="Rectangle-36" fill="url(#linearGradient-6)" mask="url(#mask-2)" points="0 3 4 3 4 2.5 4 0 5 0 5 2.5 5 3 9 3 9 4 5 4 5 4.5 5 7 4 7 4 4.5 4 4 0 4"></polygon>
                    <polygon id="Star-2" fill="#FFFFFF" mask="url(#mask-2)" points="4.5 12.25 3.61832212 12.7135255 3.78670761 11.7317627 3.07341523 11.0364745 4.05916106 10.8932373 4.5 10 4.94083894 10.8932373 5.92658477 11.0364745 5.21329239 11.7317627 5.38167788 12.7135255"></polygon>
                    <polygon id="Star-2" fill="#FFFFFF" mask="url(#mask-2)" points="15 13 14.8880355 13.4937122 14.8887395 12.987464 14.6697209 13.4438833 14.7830581 12.9504844 14.4679679 13.3467242 14.6882551 12.8909157 14.2928932 13.2071068 14.6090843 12.8117449 14.1532758 13.0320321 14.5495156 12.7169419 14.0561167 12.8302791 14.512536 12.6112605 14.0062878 12.6119645 14.5 12.5 14.0062878 12.3880355 14.512536 12.3887395 14.0561167 12.1697209 14.5495156 12.2830581 14.1532758 11.9679679 14.6090843 12.1882551 14.2928932 11.7928932 14.6882551 12.1090843 14.4679679 11.6532758 14.7830581 12.0495156 14.6697209 11.5561167 14.8887395 12.012536 14.8880355 11.5062878 15 12 15.1119645 11.5062878 15.1112605 12.012536 15.3302791 11.5561167 15.2169419 12.0495156 15.5320321 11.6532758 15.3117449 12.1090843 15.7071068 11.7928932 15.3909157 12.1882551 15.8467242 11.9679679 15.4504844 12.2830581 15.9438833 12.1697209 15.487464 12.3887395 15.9937122 12.3880355 15.5 12.5 15.9937122 12.6119645 15.487464 12.6112605 15.9438833 12.8302791 15.4504844 12.7169419 15.8467242 13.0320321 15.3909157 12.8117449 15.7071068 13.2071068 15.3117449 12.8909157 15.5320321 13.3467242 15.2169419 12.9504844 15.3302791 13.4438833 15.1112605 12.987464 15.1119645 13.4937122"></polygon>
                    <polygon id="Star-2" fill="#FFFFFF" mask="url(#mask-2)" points="15 3.5 14.2928932 3.70710678 14.5 3 14.2928932 2.29289322 15 2.5 15.7071068 2.29289322 15.5 3 15.7071068 3.70710678"></polygon>
                    <polygon id="Star-2" fill="#FFFFFF" mask="url(#mask-2)" points="18 6.5 17.2928932 6.70710678 17.5 6 17.2928932 5.29289322 18 5.5 18.7071068 5.29289322 18.5 6 18.7071068 6.70710678"></polygon>
                    <polygon id="Star-2" fill="#FFFFFF" mask="url(#mask-2)" points="12 7.5 11.2928932 7.70710678 11.5 7 11.2928932 6.29289322 12 6.5 12.7071068 6.29289322 12.5 7 12.7071068 7.70710678"></polygon>
                    <polygon id="Star-2" fill="#FFFFFF" mask="url(#mask-2)" points="16.5 8.75 16.1464466 8.85355339 16.25 8.5 16.1464466 8.14644661 16.5 8.25 16.8535534 8.14644661 16.75 8.5 16.8535534 8.85355339"></polygon>
                </g>
            </g>
        </g>
    </g>
</svg>