<?xml version="1.0" encoding="UTF-8"?>
<svg width="26px" height="19px" viewBox="0 0 26 19" version="1.1" xmlns="http://www.w3.org/2000/svg" xmlns:xlink="http://www.w3.org/1999/xlink">
    <!-- Generator: Sketch 52.2 (67145) - http://www.bohemiancoding.com/sketch -->
    <title>flag-hk</title>
    <desc>Created with Sketch.</desc>
    <defs>
        <rect id="path-1" x="0" y="0" width="23.8" height="17" rx="2"></rect>
    </defs>
    <g id="Page-1" stroke="none" stroke-width="1" fill="none" fill-rule="evenodd">
        <g id="SD-3141---Reference" transform="translate(-482.000000, -83.000000)">
            <g id="Group-16" transform="translate(480.000000, 33.000000)">
                <g id="Group-4" transform="translate(3.000000, 24.000000)">
                    <g id="flag-hk" transform="translate(0.000000, 27.000000)">
                        <mask id="mask-2" fill="white">
                            <use xlink:href="#path-1"></use>
                        </mask>
                        <use id="Mask" stroke-opacity="0.5" stroke="#FFFFFF" stroke-width="1.33333333" fill="#FFFFFF" xlink:href="#path-1"></use>
                        <rect id="Rectangle-2" fill="#F0371D" mask="url(#mask-2)" x="0" y="0" width="23.8" height="17"></rect>
                        <path d="M13.6,8.14909782 C12.6956299,7.58243115 12.4666667,8.61206605 12.4666667,8.14909782 C12.4666667,7.21021375 13.4814879,6.44909782 14.7333333,6.44909782 C15.9851788,6.44909782 17,7.21021375 17,8.14909782 C15.9246338,8.14909782 15.8172093,8.71576449 15.3,8.71576449 C14.6654455,8.71576449 14.5043701,8.71576449 13.6,8.14909782 Z M15.0166667,7.93333333 C15.1731473,7.93333333 15.3,7.80648068 15.3,7.65 C15.3,7.49351932 15.1731473,7.36666667 15.0166667,7.36666667 C14.860186,7.36666667 14.7333333,7.49351932 14.7333333,7.65 C14.7333333,7.80648068 14.860186,7.93333333 15.0166667,7.93333333 Z M12.9642609,10.1574509 C13.2237272,9.12223421 12.1737327,9.22265193 12.6140417,9.07958688 C13.5069735,8.78945575 14.5444347,9.51941034 14.9312763,10.7099861 C15.3181178,11.9005619 14.9078505,13.100912 14.0149187,13.3910431 C13.6826123,12.368309 13.1104842,12.4412519 12.9506578,11.9493566 C12.7545697,11.3458595 12.7047946,11.1926677 12.9642609,10.1574509 Z M13.6072392,11.4381061 C13.6555944,11.5869281 13.8154381,11.6683725 13.96426,11.6200173 C14.113082,11.5716621 14.1945264,11.4118184 14.1461712,11.2629965 C14.0978161,11.1141745 13.9379724,11.0327301 13.7891504,11.0810853 C13.6403284,11.1294405 13.558884,11.2892841 13.6072392,11.4381061 Z M10.8577494,10.1734424 C11.9224785,10.1003099 11.5025095,9.1327366 11.7746353,9.50728576 C12.3264976,10.2668589 11.9528627,11.4791116 10.9400984,12.2149279 C9.92733419,12.9507442 8.65895385,12.9314854 8.10709164,12.1719122 C8.97708118,11.5398278 8.73091112,11.0182423 9.14934222,10.7142343 C9.66270757,10.3412526 9.79302032,10.2465748 10.8577494,10.1734424 Z M9.83846519,11.1806953 C9.71186967,11.2726723 9.68380583,11.4498604 9.77578287,11.5764559 C9.8677599,11.7030515 10.044948,11.7311153 10.1715435,11.6391383 C10.298139,11.5471612 10.3262029,11.3699731 10.2342258,11.2433776 C10.1422488,11.1167821 9.96506072,11.0887183 9.83846519,11.1806953 Z M10.1915928,8.17497252 C10.5901653,9.1649909 11.3806046,8.46657998 11.1084787,8.84112914 C10.5566165,9.60070231 9.28823617,9.61996108 8.27547194,8.88414479 C7.26270771,8.14832851 6.88907281,6.93607584 7.44093502,6.17650266 C8.31092456,6.80858706 8.73091112,6.41328664 9.14934222,6.71729463 C9.66270757,7.09027639 9.79302032,7.18495414 10.1915928,8.17497252 Z M8.91866221,7.51683388 C8.79206668,7.42485685 8.61487861,7.45292068 8.52290157,7.57951621 C8.43092454,7.70611174 8.45898837,7.88329981 8.5855839,7.97527685 C8.71217943,8.06725388 8.8893675,8.03919005 8.98134453,7.91259452 C9.07332157,7.78599899 9.04525774,7.60881092 8.91866221,7.51683388 Z M11.8863969,6.92385878 C11.0679991,7.60885624 11.9764866,8.14478788 11.5361776,8.00172283 C10.6432458,7.7115917 10.2329785,6.51124159 10.61982,5.32066584 C11.0066616,4.13009008 12.0441228,3.40013549 12.9370546,3.69026662 C12.6047482,4.71300067 13.1104842,4.99027708 12.9506578,5.48217233 C12.7545697,6.08566949 12.7047946,6.23886132 11.8863969,6.92385878 Z M12.1189667,5.50985382 C12.1673219,5.36103185 12.0858775,5.20118818 11.9370555,5.15283299 C11.7882336,5.1044778 11.6283899,5.18592222 11.5800347,5.33474419 C11.5316795,5.48356616 11.6131239,5.64340983 11.7619459,5.69176502 C11.9107679,5.74012021 12.0706115,5.65867579 12.1189667,5.50985382 Z" id="Oval-145" fill="#FFFFFF" mask="url(#mask-2)"></path>
                    </g>
                </g>
            </g>
        </g>
    </g>
</svg>