<?xml version="1.0" encoding="UTF-8"?>
<svg width="21px" height="15px" viewBox="0 0 21 15" version="1.1" xmlns="http://www.w3.org/2000/svg" xmlns:xlink="http://www.w3.org/1999/xlink">
    <!-- Generator: Sketch 52.5 (67469) - http://www.bohemiancoding.com/sketch -->
    <title>flag - CH - Switzerland - sm</title>
    <desc>Created with Sketch.</desc>
    <defs>
        <rect id="path-1" x="0" y="0" width="21" height="15" rx="1.5"></rect>
    </defs>
    <g id="Flags" stroke="none" stroke-width="1" fill="none" fill-rule="evenodd">
        <g id="Tablet" transform="translate(-158.000000, -236.000000)">
            <g id="small" transform="translate(158.000000, 103.000000)">
                <g id="flag---CH---Switzerland---sm" transform="translate(0.000000, 133.000000)">
                    <mask id="mask-2" fill="white">
                        <use xlink:href="#path-1"></use>
                    </mask>
                    <use id="Mask" fill="#FFFFFF" xlink:href="#path-1"></use>
                    <rect id="Mask-Copy" fill="#FF0000" mask="url(#mask-2)" x="0" y="0" width="21" height="15"></rect>
                    <path d="M9,9 L6.25577831,9 C6.11451585,9 6,8.88605976 6,8.74422169 L6,6.25577831 C6,6.11451585 6.11394024,6 6.25577831,6 L9,6 L9,3.25577831 C9,3.11451585 9.11394024,3 9.25577831,3 L11.7442217,3 C11.8854841,3 12,3.11394024 12,3.25577831 L12,6 L14.7442217,6 C14.8854841,6 15,6.11394024 15,6.25577831 L15,8.74422169 C15,8.88548415 14.8860598,9 14.7442217,9 L12,9 L12,11.7442217 C12,11.8854841 11.8860598,12 11.7442217,12 L9.25577831,12 C9.11451585,12 9,11.8860598 9,11.7442217 L9,9 Z" id="Rectangle-78" fill="#FFFFFF" mask="url(#mask-2)"></path>
                </g>
            </g>
        </g>
    </g>
</svg>