<?xml version="1.0" encoding="UTF-8"?>
<svg width="21px" height="15px" viewBox="0 0 21 15" version="1.1" xmlns="http://www.w3.org/2000/svg" xmlns:xlink="http://www.w3.org/1999/xlink">
    <!-- Generator: Sketch 52.5 (67469) - http://www.bohemiancoding.com/sketch -->
    <title>flag - DK - Denmark - sm</title>
    <desc>Created with Sketch.</desc>
    <defs>
        <rect id="path-1" x="0" y="0" width="21" height="15" rx="2"></rect>
    </defs>
    <g id="Flags" stroke="none" stroke-width="1" fill="none" fill-rule="evenodd">
        <g id="Artboard" transform="translate(-159.000000, -302.000000)">
            <g id="small" transform="translate(158.000000, 103.000000)">
                <g id="flag---DK---Denmark---sm" transform="translate(1.000000, 199.000000)">
                    <rect id="Rectangle" fill="#FFFFFF" x="0" y="5.25" width="21" height="4.5"></rect>
                    <rect id="Rectangle" fill="#FFFFFF" x="5.25" y="0" width="4.5" height="15"></rect>
                    <mask id="mask-2" fill="white">
                        <use xlink:href="#path-1"></use>
                    </mask>
                    <rect stroke="#F5F5F5" stroke-width="0.5" x="0.25" y="0.25" width="20.5" height="14.5" rx="2"></rect>
                    <path d="M6,0 L6,6 L0,6 L0,1.99188419 C0,0.891796927 0.90234375,0 1.99456145,0 L6,0 Z M9,0 L19.0054385,0 C20.1070044,0 21,0.893397331 21,1.99188419 L21,6 L9,6 L9,0 Z M21,9 L21,13.0081158 C21,14.1082031 20.0976562,15 19.0054385,15 L9,15 L9,9 L21,9 Z M6,15 L1.99456145,15 C0.892995579,15 0,14.1066027 0,13.0081158 L0,9 L6,9 L6,15 Z" id="Combined-Shape" fill="#EF264D" mask="url(#mask-2)"></path>
                </g>
            </g>
        </g>
    </g>
</svg>