<?xml version="1.0" encoding="UTF-8"?>
<svg width="23px" height="17px" viewBox="0 0 23 17" version="1.1" xmlns="http://www.w3.org/2000/svg" xmlns:xlink="http://www.w3.org/1999/xlink">
    <!-- Generator: Sketch 49.3 (51167) - http://www.bohemiancoding.com/sketch -->
    <title>icon-flag-us-sm</title>
    <desc>Created with Sketch.</desc>
    <defs>
        <path d="M19.5,15 L1.5,15 C0.675,15 0,14.325 0,13.5 L0,1.5 C0,0.675 0.675,0 1.5,0 L19.5,0 C20.325,0 21,0.675 21,1.5 L21,13.5 C21,14.325 20.325,15 19.5,15 Z" id="path-1"></path>
    </defs>
    <g id="Large" stroke="none" stroke-width="1" fill="none" fill-rule="evenodd">
        <g id="US---Locale-Selector---Footer" transform="translate(-291.000000, -889.000000)" fill-rule="nonzero">
            <g id="Group" transform="translate(292.000000, 888.000000)">
                <g id="icon-flag-us-sm" transform="translate(0.000000, 2.000000)">
                    <g id="Red">
                        <use fill="#D02F44" fill-rule="evenodd" xlink:href="#path-1"></use>
                        <path stroke-opacity="0.5" stroke="#FFFFFF" stroke-width="1" d="M19.5,15.5 L1.5,15.5 C0.398857625,15.5 -0.5,14.6011424 -0.5,13.5 L-0.5,1.5 C-0.5,0.398857625 0.398857625,-0.5 1.5,-0.5 L19.5,-0.5 C20.6011424,-0.5 21.5,0.398857625 21.5,1.5 L21.5,13.5 C21.5,14.6011424 20.6011424,15.5 19.5,15.5 Z"></path>
                    </g>
                    <rect id="white_stripe_1_" fill="#FFFFFF" x="0" y="4.95" width="21" height="1.65"></rect>
                    <rect id="white_stripe_3_" fill="#FFFFFF" x="0" y="11.625" width="21" height="1.65"></rect>
                    <rect id="white_stripe_2_" fill="#FFFFFF" x="0" y="8.325" width="21" height="1.65"></rect>
                    <rect id="white_stripe_4_" fill="#FFFFFF" x="0" y="1.65" width="21" height="1.65"></rect>
                    <path d="M9,6.6 L0,6.6 L0,1.425 C0,0.675 0.675,0 1.5,0 L9,0 L9,6.6 Z" id="Blue_box" fill="#46467F"></path>
                    <circle id="star" fill="#FFFFFF" cx="4.425" cy="1.65" r="1"></circle>
                    <circle id="star_1_" fill="#FFFFFF" cx="2.175" cy="1.65" r="1"></circle>
                    <circle id="star_2_" fill="#FFFFFF" cx="6.825" cy="1.65" r="1"></circle>
                    <circle id="star_5_" fill="#FFFFFF" cx="4.425" cy="4.95" r="1"></circle>
                    <circle id="star_4_" fill="#FFFFFF" cx="2.175" cy="4.95" r="1"></circle>
                    <circle id="star_3_" fill="#FFFFFF" cx="6.825" cy="4.95" r="1"></circle>
                    <circle id="star_7_" fill="#FFFFFF" cx="5.7" cy="3.3" r="1"></circle>
                    <circle id="star_6_" fill="#FFFFFF" cx="3.225" cy="3.3" r="1"></circle>
                </g>
            </g>
        </g>
    </g>
</svg>