<?xml version="1.0" encoding="UTF-8"?>
<svg width="28px" height="20px" viewBox="0 0 28 20" version="1.1" xmlns="http://www.w3.org/2000/svg" xmlns:xlink="http://www.w3.org/1999/xlink">
    <!-- Generator: Sketch 52.2 (67145) - http://www.bohemiancoding.com/sketch -->
    <title>flag-lg-nz</title>
    <desc>Created with Sketch.</desc>
    <defs>
        <rect id="path-1" x="0" y="0" width="28" height="20" rx="2"></rect>
    </defs>
    <g id="Page-1" stroke="none" stroke-width="1" fill="none" fill-rule="evenodd">
        <g id="SD-3141---Reference" transform="translate(-254.000000, -170.000000)">
            <g id="Group-13" transform="translate(254.000000, 149.000000)">
                <g id="Group-2" transform="translate(0.000000, 21.000000)">
                    <g id="flag-lg-nz">
                        <mask id="mask-2" fill="white">
                            <use xlink:href="#path-1"></use>
                        </mask>
                        <use id="Mask" fill="#FFFFFF" xlink:href="#path-1"></use>
                        <rect id="Mask-Copy" fill="#0A17A7" mask="url(#mask-2)" x="0" y="0" width="28" height="20"></rect>
                        <path d="M4.33333333,4.15331164 L-0.901085803,-0.333333333 L0.666666667,-0.333333333 L0.860412731,-0.27124449 L5.44015502,3 L6.57106792,3 L12.3333333,-0.601415881 L12.3333333,0.333333333 C12.3333333,0.628978368 12.1628101,0.960008269 11.9158002,1.1364439 L7.66666667,4.1715393 L7.66666667,5.18002169 L11.9660302,8.86519043 C12.3427037,9.18805344 12.1509712,9.66666667 11.6666667,9.66666667 C11.4092185,9.66666667 11.0776031,9.56030345 10.8616414,9.40604508 L6.55984498,6.33333333 L5.42893208,6.33333333 L-0.333333333,9.93474921 L-0.333333333,8.49512737 L4.33333333,5.16179403 L4.33333333,4.15331164 Z" id="Rectangle-36" stroke="#FFFFFF" stroke-width="0.666666667" fill="#FF2E3B" mask="url(#mask-2)"></path>
                        <path d="M0,3.33333333 L0,6 L4.66666667,6 L4.66666667,9.33948135 C4.66666667,9.70427573 4.97256724,10 5.33957926,10 L6.66042074,10 C7.0320601,10 7.33333333,9.69934988 7.33333333,9.33948135 L7.33333333,6 L11.9911963,6 C12.3642483,6 12.6666667,5.69409943 12.6666667,5.3270874 L12.6666667,4.00624593 C12.6666667,3.63460657 12.3646425,3.33333333 11.9911963,3.33333333 L7.33333333,3.33333333 L7.33333333,0 L4.66666667,0 L4.66666667,3.33333333 L0,3.33333333 Z" id="Rectangle-2" fill="#FFFFFF" mask="url(#mask-2)"></path>
                        <polygon id="Rectangle-36" fill="#FF2E3B" mask="url(#mask-2)" points="0 4 5.33333333 4 5.33333333 3.33333333 5.33333333 0 6.66666667 0 6.66666667 3.33333333 6.66666667 4 12 4 12 5.33333333 6.66666667 5.33333333 6.66666667 6 6.66666667 9.33333333 5.33333333 9.33333333 5.33333333 6 5.33333333 5.33333333 0 5.33333333"></polygon>
                        <polygon id="Star-2" fill="#CA1931" mask="url(#mask-2)" points="21 16 19.5857864 16.4142136 20 15 19.5857864 13.5857864 21 14 22.4142136 13.5857864 22 15 22.4142136 16.4142136"></polygon>
                        <polygon id="Star-2" fill="#CA1931" mask="url(#mask-2)" points="21 5 19.5857864 5.41421356 20 4 19.5857864 2.58578644 21 3 22.4142136 2.58578644 22 4 22.4142136 5.41421356"></polygon>
                        <polygon id="Star-2" fill="#CA1931" mask="url(#mask-2)" points="25 8 23.5857864 8.41421356 24 7 23.5857864 5.58578644 25 6 26.4142136 5.58578644 26 7 26.4142136 8.41421356"></polygon>
                        <polygon id="Star-2" fill="#CA1931" mask="url(#mask-2)" points="17 10 15.5857864 10.4142136 16 9 15.5857864 7.58578644 17 8 18.4142136 7.58578644 18 9 18.4142136 10.4142136"></polygon>
                    </g>
                </g>
            </g>
        </g>
    </g>
</svg>