<?xml version="1.0" encoding="UTF-8"?>
<svg width="21px" height="15px" viewBox="0 0 21 15" version="1.1" xmlns="http://www.w3.org/2000/svg" xmlns:xlink="http://www.w3.org/1999/xlink">
    <!-- Generator: Sketch 52.5 (67469) - http://www.bohemiancoding.com/sketch -->
    <title>flag - ES - Spain - sm</title>
    <desc>Created with Sketch.</desc>
    <defs>
        <rect id="path-1" x="0" y="0" width="21" height="15" rx="1.5"></rect>
    </defs>
    <g id="Flags" stroke="none" stroke-width="1" fill="none" fill-rule="evenodd">
        <g id="Tablet" transform="translate(-159.000000, -269.000000)">
            <g id="small" transform="translate(158.000000, 103.000000)">
                <g id="flag---ES---Spain---sm" transform="translate(1.000000, 166.000000)">
                    <mask id="mask-2" fill="white">
                        <use xlink:href="#path-1"></use>
                    </mask>
                    <use id="Mask" fill="#FFFFFF" xlink:href="#path-1"></use>
                    <rect id="Rectangle-2" fill="#DD172C" mask="url(#mask-2)" x="0" y="0" width="21" height="4"></rect>
                    <rect id="Rectangle-2" fill="#DD172C" mask="url(#mask-2)" x="0" y="11" width="21" height="4"></rect>
                    <rect id="Rectangle-2" fill="#FFD133" mask="url(#mask-2)" x="0" y="4" width="21" height="7"></rect>
                    <polygon id="Rectangle-139-Copy" fill="#FFEDB1" mask="url(#mask-2)" points="5.5 7 6.5 7 6.5 7.5 5.5 7.5"></polygon>
                    <path d="M4.54041885,6.97462761 L4.66589006,8.48028207 C4.70131512,8.90538284 5.07610818,9.25 5.5,9.25 C5.92452849,9.25 6.29879995,8.90400192 6.33410994,8.48028207 L6.45958115,6.97462761 C6.47042661,6.84448208 6.38099139,6.75 6.2440877,6.75 L4.7559123,6.75 C4.62407839,6.75 4.53000624,6.84967625 4.54041885,6.97462761 Z" id="Rectangle-137" stroke="#A41517" stroke-width="0.5" mask="url(#mask-2)"></path>
                    <polygon id="Rectangle-139" fill="#A41517" mask="url(#mask-2)" points="4.5 7.5 6.5 7.5 6.5 8 6 8 5.5 9 5 8 4.5 8"></polygon>
                    <rect id="Rectangle-135" fill="#A41517" mask="url(#mask-2)" x="3" y="6" width="1" height="3.5"></rect>
                    <rect id="Rectangle-135-Copy" fill="#A41517" mask="url(#mask-2)" x="7" y="6" width="1" height="3.5"></rect>
                    <path d="M4.5,5.5 C4.5,5.22385763 4.71403503,5 5.00468445,5 L5.99531555,5 C6.27404508,5 6.5,5.23193359 6.5,5.5 L6.5,5.74765778 C6.5,5.88702254 6.39247131,6 6.25476074,6 L4.74523926,6 C4.60979736,6 4.5,5.89298248 4.5,5.74765778 L4.5,5.5 Z" id="Rectangle-138" fill="#A41517" mask="url(#mask-2)"></path>
                </g>
            </g>
        </g>
    </g>
</svg>