
<svg width="18px" height="18px" viewBox="0 0 18 18" version="1.1" xmlns="http://www.w3.org/2000/svg" xmlns:xlink="http://www.w3.org/1999/xlink">
    <!-- Generator: Sketch 46.2 (44496) - http://www.bohemiancoding.com/sketch -->
    <desc>Created with Sketch.</desc>
    <defs></defs>
    <g id="-Tests" stroke="none" stroke-width="1" fill="none" fill-rule="evenodd">
        <g id="Tests---Landing-Page---Large" transform="translate(-153.000000, -219.000000)" fill="#2C2D30">
            <g id="Left-col" transform="translate(151.000000, 155.000000)">
                <g id="Group-2" transform="translate(2.000000, 63.000000)">
                    <path d="M9.171875,1.75 C13.8125,1.75 17.59375,5.53125 17.59375,10.171875 C17.59375,12.4169922 16.7128906,14.5332031 15.1230469,16.1230469 C13.5332031,17.7128906 11.4169922,18.59375 9.171875,18.59375 C4.53125,18.59375 0.75,14.8125 0.75,10.171875 C0.75,5.53125 4.53125,1.75 9.171875,1.75 Z M13.9628906,14.9628906 C15.2412109,13.6845703 15.9394531,11.9765625 15.9394531,10.171875 C15.9394531,6.43359375 12.9101562,3.40429688 9.171875,3.40429688 C5.43359375,3.40429688 2.40429688,6.43359375 2.40429688,10.171875 C2.40429688,13.9101562 5.43359375,16.9394531 9.171875,16.9394531 C10.9765625,16.9394531 12.6845703,16.2412109 13.9628906,14.9628906 Z M10.03125,5.1875 L10.03125,9.84960938 L13.5761719,12.0195312 L12.6738281,13.4804688 L8.3125,10.8164062 L8.3125,5.1875 L10.03125,5.1875 Z" id="clock"></path>
                </g>
            </g>
        </g>
    </g>
</svg>