<svg width="22px" height="22px" viewBox="0 0 22 22" version="1.1" xmlns="http://www.w3.org/2000/svg" xmlns:xlink="http://www.w3.org/1999/xlink">
    <!-- Generator: Sketch 46.2 (44496) - http://www.bohemiancoding.com/sketch -->
    <desc>Created with Sketch.</desc>
    <defs></defs>
    <g id="-Experts" stroke="none" stroke-width="1" fill="none" fill-rule="evenodd">
        <g id="5---Experts---Bio" transform="translate(-990.000000, -1328.000000)" fill="#305891">
            <g id="right-col" transform="translate(988.000000, 156.000000)">
                <g id="links" transform="translate(0.000000, 1036.000000)">
                    <path d="M24,147 C24,140.930664 19.0693359,136 13,136 C6.93066406,136 2,140.930664 2,147 C2,152.994141 6.79101562,157.871094 12.7529297,158 L12.7529297,149.288086 L10.25,149.288086 L10.25,146.538086 L12.7529297,146.538086 L12.7529297,143.788086 C12.7529297,141.607422 14.0849609,140.135742 16.7275391,140.135742 C17.8876953,140.135742 18.7041016,140.318359 18.7041016,140.318359 L18.7041016,142.875 L16.953125,142.875 C16.1474609,142.875 15.75,143.326172 15.75,144.121094 L15.75,146.538086 L18.5,146.538086 L18.1025391,149.288086 L15.75,149.288086 L15.75,157.65625 C20.4980469,156.431641 24,152.124023 24,147 Z" id="facebook"></path>
                </g>
            </g>
        </g>
    </g>
</svg>