<svg width="18px" height="18px" viewBox="0 0 18 18" version="1.1" xmlns="http://www.w3.org/2000/svg" xmlns:xlink="http://www.w3.org/1999/xlink">
    <!-- Generator: Sketch 46.2 (44496) - http://www.bohemiancoding.com/sketch -->
    <desc>Created with Sketch.</desc>
    <defs></defs>
    <g id="-large" stroke="none" stroke-width="1" fill="none" fill-rule="evenodd">
        <g id="2---Basics---Large" transform="translate(-152.000000, -95.000000)" fill="#737E90">
            <g id="Header" transform="translate(1.000000, 0.000000)">
                <g id="Fattie" transform="translate(0.000000, 70.000000)">
                    <g id="Input" transform="translate(151.000000, 22.000000)">
                        <path d="M17.3897638,18.2729304 L13.0115982,13.89402 C13.7236646,12.790913 14.1444988,11.4807406 14.1444988,10.0715046 C14.1444988,6.1722707 10.9699936,3 7.07150458,3 C3.17152586,3 0,6.1722707 0,10.0715046 C0,13.9714833 3.17152586,17.143754 7.07150458,17.143754 C8.47999574,17.143754 9.78942328,16.7251543 10.89402,16.0123431 L15.2721856,20.3905086 C15.4174292,20.5364971 15.6580123,20.5364971 15.8025112,20.3905086 L17.3905086,18.8025112 C17.5364971,18.6572675 17.5364971,18.4189189 17.3897638,18.2729304 L17.3897638,18.2729304 Z M2.24494573,10.0715046 C2.24494573,7.41168334 4.40944882,5.24569057 7.07075974,5.24569057 C9.73207065,5.24569057 11.8965737,7.4109385 11.8965737,10.0715046 C11.8965737,12.7328155 9.73281549,14.8973186 7.07075974,14.8973186 C4.41019366,14.8980634 2.24494573,12.7328155 2.24494573,10.0715046 L2.24494573,10.0715046 Z" id="Shape"></path>
                    </g>
                </g>
            </g>
        </g>
    </g>
</svg>
