<svg width="22px" height="22px" viewBox="0 0 22 22" version="1.1" xmlns="http://www.w3.org/2000/svg" xmlns:xlink="http://www.w3.org/1999/xlink">
    <!-- Generator: Sketch 46.2 (44496) - http://www.bohemiancoding.com/sketch -->
    <desc>Created with Sketch.</desc>
    <defs></defs>
    <g id="-Experts" stroke="none" stroke-width="1" fill="none" fill-rule="evenodd">
        <g id="5---Experts---Bio" transform="translate(-990.000000, -1409.000000)" fill="#FB9F00">
            <g id="right-col" transform="translate(988.000000, 156.000000)">
                <g id="links" transform="translate(0.000000, 1036.000000)">
                    <path d="M13,217 C19.0585938,217 24,221.941406 24,228 C24,234.09082 19.0585938,239 13,239 C6.90917969,239 2,234.09082 2,228 C2,221.941406 6.90917969,217 13,217 Z M9.33691406,233.5 C10.3466797,233.5 11.1630859,232.683594 11.1630859,231.663086 C11.1630859,230.65332 10.3466797,229.836914 9.33691406,229.836914 C8.31640625,229.836914 7.5,230.65332 7.5,231.663086 C7.5,232.683594 8.31640625,233.5 9.33691406,233.5 Z M13.4619141,233.5 L15.75,233.5 C15.75,228.945312 12.0546875,225.25 7.5,225.25 L7.5,227.538086 C10.7871094,227.538086 13.4619141,230.212891 13.4619141,233.5 Z M17.5869141,233.5 L19.875,233.5 C19.875,226.678711 14.3212891,221.125 7.5,221.125 L7.5,223.413086 C13.0751953,223.413086 17.5869141,227.924805 17.5869141,233.5 Z" id="rss"></path>
                </g>
            </g>
        </g>
    </g>
</svg>