<svg width="18" height="18" viewBox="0 0 18 18" fill="none" xmlns="http://www.w3.org/2000/svg">
<circle cx="9" cy="9" r="9" fill="#50ABF1"/>
<path fill-rule="evenodd" clip-rule="evenodd" d="M5.95108 11.2766C6.04681 11.7389 5.97399 12.1472 6.66617 12.5628C6.81344 12.652 6.97626 12.7494 7.23972 12.8304C7.57108 12.9326 8.26981 12.4286 8.89163 11.8281C10.1034 10.6573 10.6728 10.0354 10.6728 10.0354C11.0148 9.66563 11.4738 9.18945 12.1496 8.46045C12.6242 7.95072 13.1642 7.43772 13.3049 7.20618C13.3049 7.20618 13.4505 7.04254 13.5348 6.73654C13.5814 6.5639 13.5929 6.35281 13.5814 6.16463C13.5724 5.96909 13.5479 5.75799 13.4047 5.71054C12.9326 5.55672 12.0793 6.44118 11.9893 6.5459C11.9091 6.63918 9.2189 9.30236 8.87363 9.64763C8.85072 9.67054 8.59872 9.89636 8.57417 9.91763C8.31317 10.1197 7.9409 10.5984 7.77317 9.06181C7.70281 8.4089 7.60708 7.93681 7.20372 7.89836C6.52299 7.83454 6.08526 8.47927 5.93717 8.73045C5.7809 8.99881 5.80135 9.32036 5.84226 10.1991C5.86517 10.7522 5.86272 10.852 5.95108 11.2766Z" fill="white"/>
</svg>
