<svg width="22px" height="22px" viewBox="0 0 22 22" version="1.1" xmlns="http://www.w3.org/2000/svg" xmlns:xlink="http://www.w3.org/1999/xlink">
    <!-- Generator: Sketch 46.2 (44496) - http://www.bohemiancoding.com/sketch -->
    <desc>Created with Sketch.</desc>
    <defs></defs>
    <g id="-Experts" stroke="none" stroke-width="1" fill="none" fill-rule="evenodd">
        <g id="5---Experts---Bio" transform="translate(-990.000000, -1289.000000)" fill="#2CA8D2">
            <g id="right-col" transform="translate(988.000000, 156.000000)">
                <g id="links" transform="translate(0.000000, 1036.000000)">
                    <path d="M13,97 C19.0908203,97 24,101.90918 24,108 C24,114.09082 19.0908203,119 13,119 C6.90917969,119 2,114.09082 2,108 C2,101.90918 6.90917969,97 13,97 Z M19.6923828,105.583008 C20.3046875,105.15332 20.8203125,104.583984 21.25,103.97168 C20.6914062,104.208008 20.0791016,104.379883 19.4453125,104.46582 C20.1005859,104.079102 20.5625,103.466797 20.7880859,102.725586 C20.1757812,103.09082 19.5419922,103.337891 18.8330078,103.488281 C18.2744141,102.886719 17.4580078,102.5 16.5664062,102.5 C14.8369141,102.5 13.4619141,103.896484 13.4619141,105.636719 C13.4619141,105.862305 13.4833984,106.120117 13.5371094,106.345703 C10.9375,106.216797 8.6171875,104.970703 7.0703125,103.058594 C6.8125,103.541992 6.66210938,104.079102 6.66210938,104.637695 C6.66210938,105.733398 7.19921875,106.678711 8.03710938,107.237305 C7.52148438,107.237305 7.03808594,107.086914 6.62988281,106.850586 L6.62988281,106.882812 C6.62988281,108.408203 7.70410156,109.654297 9.1328125,109.96582 C8.875,110.041016 8.59570312,110.0625 8.31640625,110.0625 C8.11230469,110.0625 7.90820312,110.041016 7.72558594,110.008789 C8.11230469,111.254883 9.28320312,112.103516 10.6367188,112.125 C9.5625,112.962891 8.24121094,113.553711 6.75878906,113.553711 C6.51171875,113.553711 6.25390625,113.521484 6.02832031,113.5 C7.40332031,114.391602 9.05761719,114.875 10.8085938,114.875 C16.5664062,114.875 19.6923828,110.116211 19.6923828,105.991211 L19.6923828,105.583008 Z" id="twitter"></path>
                </g>
            </g>
        </g>
    </g>
</svg>