<svg width="22px" height="22px" viewBox="0 0 22 22" version="1.1" xmlns="http://www.w3.org/2000/svg" xmlns:xlink="http://www.w3.org/1999/xlink">
    <!-- Generator: Sketch 46.2 (44496) - http://www.bohemiancoding.com/sketch -->
    <desc>Created with Sketch.</desc>
    <defs></defs>
    <g id="-Experts" stroke="none" stroke-width="1" fill="none" fill-rule="evenodd">
        <g id="5---Experts---Bio" transform="translate(-990.000000, -1252.000000)" fill="#84CE7B">
            <g id="right-col" transform="translate(988.000000, 156.000000)">
                <g id="links" transform="translate(0.000000, 1036.000000)">
                    <path d="M13,60 C19.0800781,60 24,64.9199219 24,71 C24,77.0800781 19.0800781,82 13,82 C6.91992188,82 2,77.0800781 2,71 C2,64.9199219 6.91992188,60 13,60 Z M14.5039062,74.3730469 C15.8466797,73.0302734 15.8466797,70.8496094 14.5039062,69.4960938 C14.1923828,69.1845703 13.6875,69.1845703 13.3759766,69.4960938 C13.0644531,69.8076172 13.0644531,70.3125 13.3759766,70.6240234 C14.0957031,71.3544922 14.0957031,72.5253906 13.3759766,73.2558594 L11.3886719,75.2324219 C10.6689453,75.9628906 9.49804688,75.9628906 8.76757812,75.2324219 C8.03710938,74.5019531 8.03710938,73.3310547 8.76757812,72.6113281 L9.71289062,71.6552734 C9.4765625,71.0214844 9.390625,70.3447266 9.44433594,69.6787109 L7.63964844,71.4833984 C6.296875,72.8261719 6.296875,75.0068359 7.63964844,76.3603516 C8.99316406,77.703125 11.1738281,77.703125 12.5166016,76.3603516 L14.5039062,74.3730469 Z M18.3603516,70.5166016 C19.703125,69.1738281 19.703125,66.9931641 18.3603516,65.6396484 C17.0068359,64.296875 14.8261719,64.296875 13.4833984,65.6396484 L11.4960938,67.6269531 C10.1533203,68.9697266 10.1533203,71.1503906 11.4960938,72.5039062 C11.8076172,72.8154297 12.3125,72.8154297 12.6240234,72.5039062 C12.9355469,72.1923828 12.9355469,71.6875 12.6240234,71.3759766 C11.9042969,70.6455078 11.9042969,69.4746094 12.6240234,68.7441406 L14.6113281,66.7675781 C15.3310547,66.0371094 16.5019531,66.0371094 17.2324219,66.7675781 C17.9628906,67.4980469 17.9628906,68.6689453 17.2324219,69.3886719 L16.2871094,70.3447266 C16.5234375,70.9785156 16.609375,71.6552734 16.5556641,72.3212891 L18.3603516,70.5166016 Z" id="link"></path>
                </g>
            </g>
        </g>
    </g>
</svg>