<svg width="45" height="46" viewBox="0 0 45 46" fill="none" xmlns="http://www.w3.org/2000/svg">
<path d="M45 22.6748C45 35.1012 34.9264 45.1748 22.5 45.1748C10.0736 45.1748 0 35.1012 0 22.6748C0 10.2484 10.0736 0.174805 22.5 0.174805C34.9264 0.174805 45 10.2484 45 22.6748Z" fill="#50ABF1"/>
<path d="M33 17.2095C32.2639 17.5074 31.4741 17.7095 30.6442 17.7997C31.4915 17.3362 32.1402 16.6012 32.4476 15.728C31.6527 16.1572 30.7754 16.4688 29.8406 16.6377C29.092 15.9084 28.0271 15.4541 26.8461 15.4541C24.5803 15.4541 22.7431 17.1319 22.7431 19.2001C22.7431 19.4935 22.7794 19.78 22.8494 20.0539C19.44 19.8975 16.4168 18.4057 14.3935 16.1389C14.0398 16.6914 13.8386 17.3351 13.8386 18.0222C13.8386 19.3223 14.5634 20.4694 15.6632 21.1405C14.9909 21.1199 14.3585 20.951 13.8048 20.6702V20.717C13.8048 22.5318 15.2196 24.0464 17.0955 24.3912C16.7518 24.4756 16.3894 24.5224 16.0144 24.5224C15.7495 24.5224 15.4933 24.4985 15.2421 24.4528C15.7644 25.9423 17.2792 27.0255 19.0739 27.0552C17.6704 28.0596 15.9007 28.6565 13.9786 28.6565C13.6474 28.6565 13.3212 28.6383 13 28.6052C14.8159 29.6701 16.9718 30.291 19.2888 30.291C26.8362 30.291 30.9617 24.5818 30.9617 19.6305L30.9479 19.1454C31.754 18.6203 32.4513 17.9606 33 17.2095Z" fill="white"/>
</svg>
