
<svg width="18px" height="18px" viewBox="0 0 18 18" version="1.1" xmlns="http://www.w3.org/2000/svg" xmlns:xlink="http://www.w3.org/1999/xlink">
    <!-- Generator: Sketch 46 (44423) - http://www.bohemiancoding.com/sketch -->
    <desc>Created with Sketch.</desc>
    <defs></defs>
    <g id="-ContentWeb-Home-Large" stroke="none" stroke-width="1" fill="none" fill-rule="evenodd">
        <g id="Contentweb---Home---Three-Column" transform="translate(-1301.000000, -25.000000)" fill="#FFFFFF">
            <g id="Header">
                <g id="Group-11" transform="translate(181.000000, 20.000000)">
                    <path d="M1137.64476,20.5229304 L1133.2666,16.14402 C1133.97866,15.040913 1134.3995,13.7307406 1134.3995,12.3215046 C1134.3995,8.4222707 1131.22499,5.25 1127.3265,5.25 C1123.42653,5.25 1120.255,8.4222707 1120.255,12.3215046 C1120.255,16.2214833 1123.42653,19.393754 1127.3265,19.393754 C1128.735,19.393754 1130.04442,18.9751543 1131.14902,18.2623431 L1135.52719,22.6405086 C1135.67243,22.7864971 1135.91301,22.7864971 1136.05751,22.6405086 L1137.64551,21.0525112 C1137.7915,20.9072675 1137.7915,20.6689189 1137.64476,20.5229304 L1137.64476,20.5229304 Z M1122.49995,12.3215046 C1122.49995,9.66168334 1124.66445,7.49569057 1127.32576,7.49569057 C1129.98707,7.49569057 1132.15157,9.6609385 1132.15157,12.3215046 C1132.15157,14.9828155 1129.98782,17.1473186 1127.32576,17.1473186 C1124.66519,17.1480634 1122.49995,14.9828155 1122.49995,12.3215046 L1122.49995,12.3215046 Z" id="Shape"></path>
                </g>
            </g>
        </g>
    </g>
</svg>
