<?xml version="1.0" encoding="UTF-8"?>
<svg width="16px" height="15px" viewBox="0 0 16 15" version="1.1" xmlns="http://www.w3.org/2000/svg" xmlns:xlink="http://www.w3.org/1999/xlink">
    <!-- Generator: Sketch 43.2 (39069) - http://www.bohemiancoding.com/sketch -->
    <title>iconSearchInput</title>
    <desc>Created with Sketch.</desc>
    <defs></defs>
    <g id="Page-1" stroke="none" stroke-width="1" fill="none" fill-rule="evenodd">
        <path d="M15.6716418,13.9332914 L11.519495,9.95909377 C12.3972648,8.88294525 12.8903938,7.56135935 12.8903938,6.16425425 C12.8903938,4.51227187 12.2197383,2.96412838 10.9967782,1.80302077 C9.78368072,0.641913153 8.16621737,-4.4408921e-15 6.44026563,-4.4408921e-15 C4.72417647,-4.4408921e-15 3.10671313,0.641913153 1.88375304,1.80302077 C0.670655533,2.96412838 0,4.51227187 0,6.16425425 C0,7.81623663 0.670655533,9.36438011 1.88375304,10.5254877 C3.10671313,11.6865953 4.72417647,12.3285085 6.44026563,12.3285085 C7.89992767,12.3285085 9.28068907,11.8659534 10.4050233,11.0258024 L14.5571701,15 L15.6716418,13.9332914 Z M2.98836215,9.45877911 C2.07114209,8.58086847 1.56815044,7.41032096 1.56815044,6.16425425 C1.56815044,4.91818754 2.07114209,3.74764003 2.99822474,2.86028949 C3.9154448,1.98237885 5.13840489,1.50094399 6.44026563,1.50094399 C7.74212637,1.50094399 8.96508646,1.98237885 9.89216911,2.86028949 C10.8093892,3.74764003 11.3123808,4.91818754 11.3123808,6.16425425 C11.3123808,7.41032096 10.8093892,8.58086847 9.89216911,9.45877911 C8.96508646,10.3461296 7.74212637,10.8275645 6.44026563,10.8275645 C5.13840489,10.8275645 3.9154448,10.3461296 2.98836215,9.45877911 L2.98836215,9.45877911 Z" id="iconSearchInput" fill="#343F53"></path>
    </g>
</svg>