<svg width="16px" height="17px" viewBox="0 0 16 17" version="1.1" xmlns="http://www.w3.org/2000/svg" xmlns:xlink="http://www.w3.org/1999/xlink">
    <!-- Generator: Sketch 44.1 (41455) - http://www.bohemiancoding.com/sketch -->
    <desc>Created with Sketch.</desc>
    <defs></defs>
    <g id="-Style-Guide" stroke="none" stroke-width="1" fill="none" fill-rule="evenodd">
        <g id="TD-Style-Guide-Large" transform="translate(-1831.000000, -5396.000000)" fill="#444444">
            <g id="Alerts" transform="translate(148.000000, 5396.200000)">
                <path d="M1692,9 L1690,9 L1690,4 L1692,4 L1692,9 Z M1691,12 C1690.4,12 1690,11.6 1690,11 C1690,10.4 1690.4,10 1691,10 C1691.6,10 1692,10.4 1692,11 C1692,11.6 1691.6,12 1691,12 L1691,12 Z M1698,0 L1684,0 C1683.4,0 1683,0.4 1683,1 L1683,15 C1683,15.6 1683.4,16 1684,16 L1698,16 C1698.6,16 1699,15.6 1699,15 L1699,1 C1699,0.4 1698.6,0 1698,0 L1698,0 Z" id="Fill-200"></path>
            </g>
        </g>
    </g>
</svg>