<svg width="16px" height="16px" viewBox="0 0 16 16" version="1.1" xmlns="http://www.w3.org/2000/svg" xmlns:xlink="http://www.w3.org/1999/xlink">
  <!-- Generator: Sketch 51.2 (57519) - http://www.bohemiancoding.com/sketch -->
  <desc>Created with Sketch.</desc>
  <defs></defs>
  <g id="Small" stroke="none" stroke-width="1" fill="none" fill-rule="evenodd">
    <g id="Small-Scroll" transform="translate(-15.000000, -977.000000)" fill="#444444">
      <g id="Floating-Resources-Bar" transform="translate(0.000000, 945.000000)">
        <g id="Resources-Icon" transform="translate(15.000000, 32.000000)">
          <polygon id="Fill-148" points="6 3 16 3 16 1 6 1"></polygon>
          <polygon id="Fill-149" points="6 9 16 9 16 7 6 7"></polygon>
          <polygon id="Fill-150" points="6 15 16 15 16 13 6 13"></polygon>
          <path d="M3,0 L1,0 C0.4,0 0,0.4 0,1 L0,3 C0,3.6 0.4,4 1,4 L3,4 C3.6,4 4,3.6 4,3 L4,1 C4,0.4 3.6,0 3,0" id="Fill-151"></path>
          <path d="M3,6 L1,6 C0.4,6 0,6.4 0,7 L0,9 C0,9.6 0.4,10 1,10 L3,10 C3.6,10 4,9.6 4,9 L4,7 C4,6.4 3.6,6 3,6" id="Fill-152"></path>
          <path d="M3,12 L1,12 C0.4,12 0,12.4 0,13 L0,15 C0,15.6 0.4,16 1,16 L3,16 C3.6,16 4,15.6 4,15 L4,13 C4,12.4 3.6,12 3,12" id="Fill-153"></path>
        </g>
      </g>
    </g>
  </g>
</svg>
