<?xml version="1.0" encoding="UTF-8"?>
<svg width="18px" height="18px" viewBox="0 0 18 18" version="1.1" xmlns="http://www.w3.org/2000/svg" xmlns:xlink="http://www.w3.org/1999/xlink">
    <!-- Generator: Sketch 49.3 (51167) - http://www.bohemiancoding.com/sketch -->
    <title>globe@2x</title>
    <desc>Created with Sketch.</desc>
    <defs></defs>
    <g id="Page-1" stroke="none" stroke-width="1" fill="none" fill-rule="evenodd">
        <g id="2.1---Icon-in-Header" transform="translate(-1055.000000, -26.000000)" fill="#FFFFFF">
            <g id="Group-4" transform="translate(1055.000000, 26.000000)">
                <path d="M15.1230469,3.22070312 C16.7128906,4.81054688 17.59375,6.92675781 17.59375,9.171875 C17.59375,11.4169922 16.7128906,13.5332031 15.1230469,15.1230469 C13.5332031,16.7128906 11.4169922,17.59375 9.171875,17.59375 C6.92675781,17.59375 4.81054688,16.7128906 3.22070312,15.1230469 C1.63085937,13.5332031 0.75,11.4169922 0.75,9.171875 C0.75,6.92675781 1.63085937,4.81054688 3.22070312,3.22070312 C4.81054688,1.63085937 6.91601562,0.75 9.171875,0.75 C11.4169922,0.75 13.5332031,1.63085937 15.1230469,3.22070312 Z M9.171875,2.40429688 L9.15039062,2.40429688 C8.81738281,2.42578125 8.28027344,2.87695312 7.77539062,4.1015625 C7.32421875,5.24023438 7.03417969,6.71191406 6.95898438,8.3125 L11.3847656,8.3125 C11.3095703,6.71191406 11.0302734,5.24023438 10.5683594,4.1015625 C10.546875,4.04785156 10.5146484,3.99414062 10.4931641,3.95117188 C11.2880859,4.14453125 12.0185547,4.52050781 12.6523438,5.046875 C12.8994141,6.04589844 13.0498047,7.15234375 13.1035156,8.3125 L15.8857422,8.3125 C15.6923828,6.83007812 15.0371094,5.45507812 13.9628906,4.38085938 C12.6845703,3.10253906 10.9765625,2.40429688 9.171875,2.40429688 Z M9.171875,15.9394531 C9.49414062,15.9394531 10.0527344,15.4990234 10.5683594,14.2421875 C11.0302734,13.1035156 11.3095703,11.6318359 11.3847656,10.03125 L6.95898438,10.03125 C7.03417969,11.6318359 7.32421875,13.1035156 7.77539062,14.2421875 C8.29101562,15.4990234 8.84960938,15.9394531 9.171875,15.9394531 Z M4.38085938,4.38085938 C3.30664062,5.45507812 2.65136719,6.83007812 2.45800781,8.3125 L5.24023438,8.3125 C5.31542969,6.5078125 5.6484375,4.82128906 6.18554688,3.5 C6.26074219,3.31738281 6.3359375,3.14550781 6.421875,2.984375 C5.66992188,3.328125 4.98242188,3.79003906 4.38085938,4.38085938 Z M2.45800781,10.03125 C2.65136719,11.5136719 3.30664062,12.8886719 4.38085938,13.9628906 C4.98242188,14.5537109 5.66992188,15.0263672 6.421875,15.3486328 C6.3359375,15.1982422 6.26074219,15.0263672 6.18554688,14.84375 C5.6484375,13.5224609 5.31542969,11.8359375 5.24023438,10.03125 L2.45800781,10.03125 Z M13.9628906,13.9628906 C15.0371094,12.8886719 15.6923828,11.5136719 15.8857422,10.03125 L13.1035156,10.03125 C13.0283203,11.8359375 12.6953125,13.5224609 12.1582031,14.84375 C12.0830078,15.0263672 12.0078125,15.1982422 11.921875,15.3486328 C12.6738281,15.0263672 13.3613281,14.5537109 13.9628906,13.9628906 Z" id="globe"></path>
            </g>
        </g>
    </g>
</svg>