<svg width="22px" height="22px" viewBox="0 0 22 22" version="1.1" xmlns="http://www.w3.org/2000/svg" xmlns:xlink="http://www.w3.org/1999/xlink">
    <!-- Generator: Sketch 46.2 (44496) - http://www.bohemiancoding.com/sketch -->
    <desc>Created with Sketch.</desc>
    <defs></defs>
    <g id="-Experts" stroke="none" stroke-width="1" fill="none" fill-rule="evenodd">
        <g id="5---Experts---Bio" transform="translate(-990.000000, -1371.000000)" fill="#2E70B0">
            <g id="right-col" transform="translate(988.000000, 156.000000)">
                <g id="links" transform="translate(0.000000, 1036.000000)">
                    <path d="M13,179 C19.0908203,179 24,183.90918 24,190 C24,196.09082 19.0908203,201 13,201 C6.90917969,201 2,196.09082 2,190 C2,183.90918 6.90917969,179 13,179 Z M9.78808594,195.5 L9.78808594,187.711914 L7.03808594,187.711914 L7.03808594,195.5 L9.78808594,195.5 Z M8.41308594,186.336914 C9.54101562,186.336914 10.25,185.617188 10.25,184.725586 C10.2285156,183.8125 9.54101562,183.125 8.41308594,183.125 C7.31738281,183.125 6.58691406,183.8125 6.58691406,184.725586 C6.58691406,185.617188 7.29589844,186.336914 8.39160156,186.336914 L8.41308594,186.336914 Z M19.875,195.5 L19.875,191.375 C19.875,188.850586 18.6289062,187.25 16.6630859,187.25 C15.5458984,187.25 14.7294922,187.916016 14.375,188.904297 L14.2783203,187.711914 L11.5498047,187.711914 C11.5712891,188.012695 11.625,189.538086 11.625,189.538086 L11.625,195.5 L14.375,195.5 L14.375,191.375 C14.375,190.257812 14.8798828,189.538086 15.7285156,189.538086 C16.5664062,189.538086 17.125,189.978516 17.125,191.375 L17.125,195.5 L19.875,195.5 Z" id="linkedin"></path>
                </g>
            </g>
        </g>
    </g>
</svg>