<?xml version="1.0" encoding="UTF-8"?>
<svg width="16px" height="22px" viewBox="0 0 16 22" version="1.1" xmlns="http://www.w3.org/2000/svg" xmlns:xlink="http://www.w3.org/1999/xlink">
    <!-- Generator: Sketch 43.2 (39069) - http://www.bohemiancoding.com/sketch -->
    <title>iconLocation</title>
    <desc>Created with Sketch.</desc>
    <defs></defs>
    <g id="Page-1" stroke="none" stroke-width="1" fill="none" fill-rule="evenodd">
        <path d="M7.88376483,4.6 C6.5017024,4.6 5.38403452,5.7140625 5.38403452,7.09166667 C5.38403452,8.46927083 6.5017024,9.58333333 7.88376483,9.58333333 C9.26582727,9.58333333 10.3834951,8.46927083 10.3834951,7.09166667 C10.3834951,5.7140625 9.26582727,4.6 7.88376483,4.6 L7.88376483,4.6 Z M0,7.88229167 C0,11.35625 1.80269013,13.9916667 3.64143406,16.3994792 C4.62690467,17.68125 7.12663498,20.8796875 7.12663498,20.8796875 L7.88376483,21.85 L8.64089469,20.8796875 C8.64089469,20.8796875 11.140625,17.68125 12.1260956,16.3994792 C13.9648395,13.9916667 15.7675297,11.35625 15.7675297,7.88229167 C15.7675297,3.53385417 12.234257,0 7.88376483,0 C3.53327265,0 0,3.53385417 0,7.88229167 Z M10.6238538,15.2734375 C9.98690332,16.1119792 8.71300229,17.753125 7.88376483,18.8192708 C7.05452737,17.753125 5.78062635,16.1119792 5.14367584,15.2734375 C3.06457322,12.5661458 1.8627798,10.49375 1.8627798,7.85833333 C1.8627798,4.54010417 4.56681499,1.8328125 7.88376483,1.8328125 C11.2007147,1.8328125 13.9047499,4.54010417 13.9047499,7.85833333 C13.9047499,10.49375 12.7029564,12.5661458 10.6238538,15.2734375 L10.6238538,15.2734375 Z" id="iconLocation" fill="#343F53"></path>
    </g>
</svg>