<svg width="17px" height="17px" viewBox="0 0 17 17" version="1.1" xmlns="http://www.w3.org/2000/svg" xmlns:xlink="http://www.w3.org/1999/xlink">
    <!-- Generator: Sketch 44.1 (41455) - http://www.bohemiancoding.com/sketch -->
    <desc>Created with Sketch.</desc>
    <defs></defs>
    <g id="-Style-Guide" stroke="none" stroke-width="1" fill="none" fill-rule="evenodd">
        <g id="TD-Style-Guide-Large" transform="translate(-1833.000000, -3311.000000)" fill="#444444">
            <g id="Form-Components" transform="translate(148.000000, 3311.500000)">
                <g id="Group-3" transform="translate(1685.000000, 0.000000)">
                    <polygon id="Fill-450" points="14.6137 16 10.8207 12.207 9.0277 15 7.0277 7 15.0277 9 12.2347 10.793 16.0277 14.586"></polygon>
                    <path d="M7.0277,16 L1.0277,16 C0.4757,16 0.0277,15.552 0.0277,15 L0.0277,1 C0.0277,0.448 0.4757,0 1.0277,0 L15.0277,0 C15.5797,0 16.0277,0.448 16.0277,1 L16.0277,7 L14.0277,7 L14.0277,2 L2.0277,2 L2.0277,14 L7.0277,14 L7.0277,16 Z" id="Fill-451"></path>
                </g>
            </g>
        </g>
    </g>
</svg>