<?xml version="1.0" encoding="utf-8"?>
<!-- Generator: Adobe Illustrator 16.0.4, SVG Export Plug-In . SVG Version: 6.00 Build 0)  -->
<!DOCTYPE svg PUBLIC "-//W3C//DTD SVG 1.1//EN" "http://www.w3.org/Graphics/SVG/1.1/DTD/svg11.dtd">
<svg version="1.1" id="Layer_1" xmlns="http://www.w3.org/2000/svg" xmlns:xlink="http://www.w3.org/1999/xlink" x="0px" y="0px"
	 width="20px" height="20px" viewBox="0 0 20 20" enable-background="new 0 0 20 20" xml:space="preserve">
<g>
	<path fill="#ffffff" d="M5.24,17.811H1.925V7.199H5.24V17.811z M3.498,5.871H3.474c-1.2,0-1.978-0.811-1.978-1.838
		c0-1.049,0.801-1.843,2.025-1.843c1.223,0,1.975,0.792,1.999,1.84C5.52,5.057,4.744,5.871,3.498,5.871z M18.504,17.811h-3.76
		v-5.492c0-1.437-0.587-2.417-1.881-2.417c-0.988,0-1.538,0.661-1.795,1.3c-0.095,0.229-0.081,0.547-0.081,0.867v5.742H7.264
		c0,0,0.048-9.728,0-10.612h3.724v1.665c0.22-0.729,1.41-1.768,3.309-1.768c2.355,0,4.207,1.526,4.207,4.814V17.811z"/>
</g>
</svg>
