<?xml version="1.0" encoding="utf-8"?>
<!-- Generator: Adobe Illustrator 16.0.4, SVG Export Plug-In . SVG Version: 6.00 Build 0)  -->
<!DOCTYPE svg PUBLIC "-//W3C//DTD SVG 1.1 Tiny//EN" "http://www.w3.org/Graphics/SVG/1.1/DTD/svg11-tiny.dtd">
<svg version="1.1" baseProfile="tiny" id="Acrobat_Logo"
	 xmlns="http://www.w3.org/2000/svg" xmlns:xlink="http://www.w3.org/1999/xlink" x="0px" y="0px" width="22px" height="22px"
	 viewBox="0 0 22 22" overflow="inherit" xml:space="preserve">
<rect id="block" fill="#D04332" width="22" height="22"/>
<path id="acrobat_logo" fill="#FFFFFF" d="M8.888,12.116c0.365-0.716,0.781-1.523,1.113-2.333l0,0l0.131-0.32
	C9.698,7.812,9.438,6.486,9.67,5.629l0,0C9.733,5.406,9.992,5.27,10.269,5.27l0,0l0.168,0.002h0.031
	c0.379-0.006,0.558,0.476,0.578,0.664l0,0c0.034,0.312-0.111,0.84-0.111,0.84l0,0c0-0.213,0.008-0.558-0.126-0.855l0,0
	c-0.157-0.344-0.306-0.55-0.44-0.582l0,0c-0.068,0.045-0.134,0.139-0.156,0.319l0,0c-0.046,0.252-0.061,0.572-0.061,0.736l0,0
	c0,0.581,0.114,1.348,0.339,2.139l0,0c0.042-0.122,0.08-0.24,0.109-0.35l0,0c0.046-0.174,0.339-1.325,0.339-1.325l0,0
	c0,0-0.074,1.532-0.177,1.996l0,0c-0.022,0.098-0.046,0.195-0.072,0.294l0,0c0.371,1.036,0.968,1.96,1.681,2.626l0,0
	c0.281,0.263,0.636,0.474,0.972,0.667l0,0c0.733-0.105,1.409-0.154,1.973-0.148l0,0c0.747,0.01,1.296,0.121,1.519,0.34l0,0
	c0.108,0.105,0.152,0.234,0.166,0.379l0,0c0.004,0.056-0.023,0.188-0.032,0.221l0,0c0.009-0.04,0.009-0.236-0.592-0.428l0,0
	c-0.473-0.152-1.356-0.146-2.418-0.034l0,0c1.228,0.601,2.423,0.899,2.802,0.72l0,0c0.093-0.045,0.205-0.199,0.205-0.199l0,0
	c0,0-0.066,0.304-0.114,0.38l0,0c-0.062,0.082-0.182,0.172-0.295,0.202l0,0c-0.599,0.159-2.157-0.21-3.516-0.986l0,0
	c-1.517,0.224-3.184,0.637-4.52,1.074l0,0c-1.313,2.301-2.3,3.357-3.103,2.956l0,0l-0.295-0.148
	c-0.12-0.068-0.139-0.236-0.111-0.372l0,0c0.094-0.458,0.668-1.147,1.822-1.837l0,0c0.124-0.075,0.677-0.367,0.677-0.367l0,0
	c0,0-0.41,0.396-0.505,0.474l0,0c-0.921,0.755-1.601,1.704-1.583,2.072l0,0l0.003,0.032C6.208,16.659,7.38,15.066,8.888,12.116
	 M9.366,12.361c-0.252,0.475-0.498,0.914-0.726,1.317l0,0c1.257-0.526,2.61-0.864,3.898-1.103l0,0
	c-0.173-0.12-0.341-0.246-0.499-0.381l0,0c-0.709-0.6-1.25-1.35-1.642-2.138l0,0C10.149,10.727,9.854,11.439,9.366,12.361"/>
</svg>
