<svg width="29px" height="29px" viewBox="0 0 29 29" version="1.1" xmlns="http://www.w3.org/2000/svg" xmlns:xlink="http://www.w3.org/1999/xlink">
    <!-- Generator: Sketch 44.1 (41455) - http://www.bohemiancoding.com/sketch -->
    <desc>Created with Sketch.</desc>
    <defs></defs>
    <g id="-Style-Guide" stroke="none" stroke-width="1" fill="none" fill-rule="evenodd">
        <g id="TD-Style-Guide-Large" transform="translate(-1146.000000, -10598.000000)" fill="#FFFFFF">
            <g id="Headers-and-Footers" transform="translate(174.000000, 8143.500000)">
                <g id="Profile-Footer-Expanded" transform="translate(0.000000, 2403.000000)">
                    <g id="Searches-containing" transform="translate(307.000000, 34.200000)">
                        <ellipse id="Background" opacity="0.2" cx="679.9" cy="32" rx="14.0093333" ry="14"></ellipse>
                        <g id="arrows" transform="translate(679.500000, 32.500000) rotate(180.000000) translate(-679.500000, -32.500000) translate(674.000000, 28.000000)">
                            <g id="down" transform="translate(0.000000, 3.000000)">
                                <path d="M7.35416809,7.25522876 L3.05257904,3.05413072 C2.8343255,2.84111111 2.8343255,2.49577778 3.05257904,2.28275817 L7.35416809,-1.91833987 C7.46315441,-2.02484967 7.64011674,-2.02484967 7.74910306,-1.91833987 L8.14403804,-1.53265359 C8.25302436,-1.42614379 8.25302436,-1.25347712 8.14403804,-1.14696732 L4.43457056,2.47546405 C4.32558424,2.58197386 4.32558424,2.75491503 4.43457056,2.86115033 L8.14403804,6.48385621 C8.25302436,6.59036601 8.25302436,6.76303268 8.14403804,6.86954248 L7.74910306,7.25522876 C7.64011674,7.36173856 7.46315441,7.36173856 7.35416809,7.25522876" transform="translate(5.557333, 2.668444) scale(-1, 1) rotate(-90.000000) translate(-5.557333, -2.668444) "></path>
                            </g>
                        </g>
                    </g>
                </g>
            </g>
        </g>
    </g>
</svg>